<svg width="15" height="15" viewBox="0 0 15 15" fill="none" xmlns="http://www.w3.org/2000/svg">
<path d="M14.3028 3.94623C14.28 3.94655 14.2573 3.95019 14.2353 3.95703V2.10738C14.2355 2.01965 14.2259 1.93214 14.2069 1.84666C14.208 1.82826 14.208 1.80975 14.2069 1.79135C14.2114 0.803677 11.2054 0 7.49613 0C3.78682 0 0.781091 0.803677 0.781091 1.79296C0.77994 1.81136 0.77994 1.82977 0.781091 1.84817C0.761116 1.93311 0.750554 2.01998 0.749612 2.10739V3.95704C0.727755 3.9502 0.70506 3.94656 0.682159 3.94624C0.308819 3.94624 0 4.88343 0 6.03833C0 7.19324 0.308819 8.13183 0.689709 8.13183C0.709997 8.13087 0.730181 8.12723 0.749633 8.12113V12.3082C0.75047 12.6229 0.872933 12.9243 1.09036 13.1468C1.30789 13.3692 1.6026 13.4946 1.91005 13.4953H2.10792V13.5229V14.2224C2.10834 14.428 2.18844 14.6252 2.33057 14.7707C2.47279 14.9161 2.66554 14.9981 2.86655 14.9985H3.59818C3.79772 14.9956 3.98815 14.9127 4.12841 14.7675C4.26865 14.6223 4.3475 14.4265 4.34782 14.2224V13.523V13.4954H10.6447V13.523V14.2224C10.6446 14.4268 10.7232 14.623 10.8636 14.7685C11.0038 14.914 11.1944 14.9972 11.3943 15H12.1155H12.1154C12.3165 14.9996 12.5092 14.9177 12.6514 14.7722C12.7936 14.6268 12.8736 14.4297 12.874 14.2239V13.5229V13.4953H13.072C13.3812 13.4974 13.6786 13.3734 13.8984 13.1506C14.1181 12.9278 14.242 12.6247 14.2428 12.3082V8.12114C14.2647 8.12799 14.2874 8.13163 14.3103 8.13184C14.6911 8.13184 15 7.19476 15 6.03986C15 4.88495 14.6837 3.94628 14.3028 3.94628L14.3028 3.94623ZM4.93112 0.92039H10.0615C10.2136 0.92039 10.3542 1.00341 10.4302 1.1381C10.5063 1.27291 10.5063 1.43893 10.4302 1.57374C10.3542 1.70843 10.2136 1.79145 10.0615 1.79145H4.93112C4.77907 1.79145 4.6384 1.70843 4.56239 1.57374C4.48636 1.43894 4.48636 1.27291 4.56239 1.1381C4.63842 1.00341 4.77908 0.92039 4.93112 0.92039ZM3.225 12.2884C3.00664 12.2884 2.79726 12.1997 2.64292 12.0418C2.48858 11.8839 2.40186 11.6697 2.40186 11.4464C2.40186 11.223 2.48856 11.0088 2.64292 10.8509C2.79728 10.693 3.00665 10.6043 3.225 10.6043C3.44326 10.6043 3.65264 10.693 3.80698 10.8509C3.96134 11.0088 4.04804 11.223 4.04804 11.4464C4.04804 11.6697 3.96134 11.8839 3.80698 12.0418C3.65262 12.1997 3.44325 12.2884 3.225 12.2884ZM11.7707 12.2884C11.5525 12.2884 11.3431 12.1997 11.1888 12.0418C11.0344 11.8839 10.9476 11.6697 10.9476 11.4464C10.9476 11.223 11.0344 11.0088 11.1888 10.8509C11.3431 10.693 11.5525 10.6043 11.7707 10.6043C11.989 10.6043 12.1984 10.693 12.3527 10.8509C12.5071 11.0088 12.5938 11.223 12.5938 11.4464C12.5938 11.6702 12.5066 11.8848 12.3517 12.0428C12.1967 12.2009 11.9866 12.2892 11.7677 12.2884L11.7707 12.2884ZM13.0092 8.65945H13.0091C13.0083 8.89631 12.916 9.12335 12.7522 9.29088C12.5884 9.45831 12.3666 9.55278 12.1351 9.55364H2.85927C2.62763 9.55278 2.4058 9.45831 2.24204 9.29088C2.07827 9.12334 1.98592 8.89633 1.98519 8.65945V3.41873C1.98592 3.18187 2.07827 2.95483 2.24204 2.7873C2.40581 2.61987 2.62761 2.5254 2.85927 2.52454H12.1335C12.3651 2.5254 12.5869 2.61987 12.7507 2.7873C12.9145 2.95484 13.0068 3.18185 13.0076 3.41873V8.65945H13.0092Z" fill="#1D8AFF"/>
</svg>
