<svg width="30" height="30" viewBox="0 0 30 30" fill="none" xmlns="http://www.w3.org/2000/svg">
<path d="M7.85742 0.105457C7.44727 0.310535 7.41211 0.421864 7.39453 1.52929L7.37695 2.51952H5.31445C3.02344 2.51952 2.8125 2.54296 2.08008 2.90038C1.19531 3.32811 0.492188 4.14257 0.164062 5.12694L0.0292969 5.5371V17.6191V29.7012L0.164062 29.8359C0.287109 29.9648 0.345703 29.9707 1.27148 29.9883C1.93359 30 2.29688 29.9883 2.41406 29.9355C2.74219 29.8008 2.75391 29.7187 2.75391 27.6269V25.7226H3.63281H4.51172V26.1621C4.51172 26.6191 4.58789 26.8535 4.78125 27.0176C4.85742 27.0762 5.13281 27.1055 5.85352 27.1289L6.82617 27.1582L6.84375 28.459L6.85547 29.7598L7.01367 29.8769C7.18359 30.0176 7.25977 30.0234 7.45898 29.9355C7.70508 29.8242 7.73438 29.6601 7.73438 28.3594V27.1289H15H22.2656V28.3594C22.2656 29.6601 22.2949 29.8242 22.541 29.9355C22.7402 30.0234 22.8164 30.0176 22.9863 29.8769L23.1445 29.7598L23.1562 28.459L23.1738 27.1582L24.1465 27.1289C24.8672 27.1055 25.1426 27.0762 25.2188 27.0176C25.4121 26.8535 25.4883 26.6191 25.4883 26.1621V25.7226H26.3672H27.2461V27.5976C27.2461 29.6719 27.2637 29.8008 27.5859 29.9355C27.7031 29.9883 28.0547 30 28.7402 29.9883L29.7188 29.9707L29.8594 29.8066L30 29.6426L29.9883 17.5605L29.9707 5.4785L29.8359 5.09764C29.4785 4.11327 28.7871 3.32225 27.9199 2.90038C27.1875 2.54296 26.9766 2.51952 24.6855 2.51952H22.623L22.6055 1.52929C22.5879 0.421864 22.5527 0.310535 22.1426 0.105457C21.9551 0.00584793 21.4922 -1.14441e-05 15 -1.14441e-05C8.50781 -1.14441e-05 8.04492 0.00584793 7.85742 0.105457ZM21.7383 2.666V4.45311H17.0215C13.6465 4.45311 12.2695 4.47069 12.1641 4.51757C11.8652 4.65233 11.8418 5.12108 12.123 5.26757C12.1992 5.31444 13.793 5.33202 17.1211 5.33202C21.8906 5.33202 22.0078 5.32616 22.1953 5.21483C22.541 5.00389 22.6172 4.79882 22.6172 4.05468V3.39843H24.627C26.2441 3.39843 26.7012 3.416 26.9824 3.48632C28.2656 3.8203 29.1211 4.95116 29.1211 6.31054V6.73827H15H0.878906V6.31054C0.878906 4.95116 1.73438 3.8203 3.01758 3.48632C3.29883 3.416 3.75586 3.39843 5.37305 3.39843H7.38281V4.05468C7.38281 4.79882 7.45898 5.00389 7.80469 5.21483C7.98047 5.3203 8.10352 5.33202 9.24609 5.33202C10.4941 5.33202 10.4941 5.33202 10.6348 5.18554C10.7168 5.10936 10.7812 4.9746 10.7812 4.89257C10.7812 4.81054 10.7168 4.67577 10.6348 4.5996C10.4941 4.45311 10.4824 4.45311 9.375 4.45311H8.26172V2.666V0.878895H15H21.7383V2.666ZM1.86328 18.3867L1.875 29.1211H1.37695H0.878906V18.3691V7.61132L1.36523 7.62889L1.8457 7.64647L1.86328 18.3867ZM27.2461 14.1738C27.2461 18.5976 27.2637 20.7832 27.3047 20.9004C27.3633 21.0644 27.5684 21.2109 27.7383 21.2109C27.7793 21.2109 27.8848 21.1582 27.9727 21.0879L28.125 20.9707L28.1367 14.3086L28.1543 7.64647L28.6406 7.62889L29.1211 7.61132V18.3691V29.1211H28.623H28.125V25.8867V22.6523L27.9961 22.5176C27.791 22.2949 27.4746 22.3476 27.334 22.623C27.2637 22.7461 27.2461 23.0273 27.2461 23.8183V24.8437H26.3672H25.4883V24.6387C25.4883 24.2285 25.207 23.7773 24.8145 23.5664C24.6914 23.4961 24.4277 23.4609 23.9062 23.4375L23.1738 23.4082V22.4121V21.416L24.0527 21.3867C24.6094 21.3691 24.9785 21.3281 25.0605 21.2812C25.3594 21.1113 25.3711 21.0176 25.3711 18.8379C25.3711 17.0273 25.3594 16.7871 25.2715 16.6348C25.0547 16.2656 25.7578 16.2891 15 16.2891C4.24219 16.2891 4.94531 16.2656 4.72852 16.6348C4.64062 16.7871 4.62891 17.0273 4.62891 18.8613C4.62891 21.5039 4.54102 21.3398 5.94727 21.3867L6.82617 21.416V22.4121V23.4082L6.09375 23.4375C5.57227 23.4609 5.30859 23.4961 5.18555 23.5664C4.79297 23.7773 4.51172 24.2285 4.51172 24.6387V24.8437H3.63281H2.75391V16.2305V7.61718H15H27.2461V14.1738ZM24.5508 18.8379V20.5078H15H5.44922V18.8379V17.168H15H24.5508V18.8379ZM22.2656 22.4121V23.4375H15H7.73438V22.4121V21.3867H15H22.2656V22.4121ZM24.5156 24.4453C24.5918 24.5508 24.6094 24.75 24.6094 25.4121V26.25H15H5.39062V25.4121C5.39062 24.75 5.4082 24.5508 5.48438 24.4453L5.57227 24.3164H15H24.4277L24.5156 24.4453Z" fill="white"/>
<path d="M9.46289 2.37305C9.38086 2.44922 9.31641 2.58398 9.31641 2.66602C9.31641 2.74805 9.38086 2.88281 9.46289 2.95898L9.60352 3.10547H15H20.3965L20.5371 2.95898C20.6191 2.88281 20.6836 2.74805 20.6836 2.66602C20.6836 2.58398 20.6191 2.44922 20.5371 2.37305L20.3965 2.22656H15H9.60352L9.46289 2.37305Z" fill="white"/>
</svg>
