<svg width="35" height="35" viewBox="0 0 35 35" fill="none" xmlns="http://www.w3.org/2000/svg">
<rect x="1" y="1" width="33" height="33" rx="4" fill="#1D8AFF" stroke="white" stroke-width="2"/>
<path d="M12.9627 8.06682C12.7027 8.19672 12.6804 8.26728 12.6693 8.96879L12.6581 9.59609H11.3506C9.89815 9.59609 9.7644 9.61088 9.30014 9.83735C8.73923 10.1083 8.29352 10.6242 8.08551 11.2478L8 11.5076V19.1611V26.8147L8.08551 26.9C8.16343 26.9817 8.20061 26.9854 8.78756 26.9965C9.20724 27.004 9.43754 26.9965 9.5119 26.9631C9.71991 26.8778 9.72731 26.8258 9.72731 25.5007V24.2944H10.2845H10.8416V24.5728C10.8416 24.8623 10.89 25.0107 11.0126 25.1147C11.0608 25.1519 11.2355 25.1704 11.6923 25.1853L12.309 25.2038L12.3201 26.0278L12.3275 26.8518L12.4278 26.926C12.5355 27.0151 12.5838 27.0188 12.7101 26.9632C12.8661 26.8926 12.8847 26.7887 12.8847 25.9647V25.1853H17.4907H22.0968V25.9647C22.0968 26.7888 22.1154 26.8926 22.2714 26.9632C22.3977 27.0189 22.446 27.0151 22.5537 26.926L22.654 26.8518L22.6614 26.0278L22.6726 25.2038L23.2892 25.1853C23.7461 25.1704 23.9207 25.1519 23.969 25.1147C24.0915 25.0107 24.1398 24.8623 24.1398 24.5728V24.2944H24.697H25.2542V25.4821C25.2542 26.7961 25.2654 26.8778 25.4696 26.9631C25.5439 26.9965 25.7668 27.004 26.2014 26.9965L26.8218 26.9854L26.9109 26.8815L27 26.7775L26.9926 19.124L26.9815 11.4705L26.896 11.2292C26.6695 10.6056 26.2312 10.1045 25.6814 9.83735C25.217 9.61088 25.0833 9.59609 23.631 9.59609H22.3234L22.3123 8.96879C22.3011 8.26728 22.2788 8.19672 22.0189 8.06682C21.8999 8.00374 21.6065 8 17.4907 8C13.3751 8 13.0815 8.00374 12.9627 8.06682ZM21.7625 9.68883V10.8209H18.7722C16.6326 10.8209 15.7598 10.8321 15.6929 10.8617C15.5034 10.9472 15.4885 11.244 15.6669 11.3369C15.7152 11.3665 16.7255 11.3777 18.8354 11.3777C21.8591 11.3777 21.9333 11.374 22.0522 11.3035C22.2714 11.1698 22.3197 11.0399 22.3197 10.5685V10.1528H23.5938C24.619 10.1528 24.9087 10.164 25.0871 10.2085C25.9005 10.4201 26.4428 11.1364 26.4428 11.9976V12.2685H17.4907H8.53862V11.9976C8.53862 11.1364 9.08099 10.4201 9.89449 10.2085C10.0727 10.164 10.3625 10.1528 11.3878 10.1528H12.6618V10.5685C12.6618 11.0399 12.7101 11.1698 12.9293 11.3035C13.0407 11.3703 13.1187 11.3777 13.8431 11.3777C14.6343 11.3777 14.6343 11.3777 14.7234 11.2849C14.7754 11.2366 14.8163 11.1513 14.8163 11.0993C14.8163 11.0473 14.7754 10.962 14.7234 10.9138C14.6343 10.8209 14.6268 10.8209 13.9247 10.8209H13.219V9.68883V8.55683H17.4907H21.7625V9.68883ZM9.16266 19.6474L9.17015 26.4472H8.85434H8.53862V19.6362V12.8216L8.84694 12.8326L9.15151 12.8438L9.16266 19.6474ZM25.2541 16.9786C25.2541 19.7809 25.2288 22.8274 25.2549 22.9016C25.292 23.0055 25.4585 22.6724 25.5662 22.6724C25.5921 22.6724 25.659 22.9526 25.7147 22.9081L25.8113 23.8991L25.8188 17.064L25.8299 12.8438L26.1383 12.8326L26.4428 12.8216V19.6362V26.4472H26.1271H25.8114V24.3983V22.3495L25.7296 22.2641C25.5996 22.1231 25.399 22.1565 25.3099 22.3309C25.2653 22.4089 25.2541 22.5871 25.2541 23.0881V23.7377H24.697H24.1398V23.6078C24.1398 23.3479 23.9615 23.0621 23.7126 22.9286C23.6346 22.884 23.4674 22.8617 23.1368 22.8469L22.6726 22.8283V22.1973V21.5663L23.2297 21.5478C23.5826 21.5367 23.8166 21.5107 23.8687 21.481C24.058 21.3733 24.0655 21.3139 24.0655 19.9332C24.0655 18.7863 24.058 18.634 24.0023 18.5376C23.8649 18.3038 24.3106 18.3186 17.4907 18.3186C10.6708 18.3186 11.1165 18.3038 10.9791 18.5376C10.9234 18.634 10.916 18.7863 10.916 19.9481C10.916 21.622 10.8603 21.5181 11.7517 21.5478L12.309 21.5663V22.1973V22.8283L11.8446 22.8469C11.514 22.8617 11.3468 22.884 11.2688 22.9286C11.02 23.0622 10.8416 23.3479 10.8416 23.6078V23.7377H10.2845H9.72731V18.2815V12.8252H17.4907H25.2541V16.9786ZM23.5455 19.9332V20.991H17.4907H11.436V19.9332V18.8753H17.4907H23.5455V19.9332ZM22.0968 22.1973V22.8469H17.4907H12.8847V22.1973V21.5477H17.4907H22.0968V22.1973ZM23.5232 23.4853C23.5715 23.552 23.5826 23.6783 23.5826 24.0977V24.6284H17.4907H11.3988V24.0977C11.3988 23.6783 11.41 23.552 11.4583 23.4853L11.514 23.4036H17.4907H23.4674L23.5232 23.4853Z" fill="white"/>
<path d="M13.9805 9.50334C13.9285 9.55166 13.8877 9.63708 13.8877 9.68906C13.8877 9.74113 13.9285 9.82655 13.9805 9.87478L14.0697 9.96769H17.4908H20.9119L21.001 9.87478C21.053 9.82655 21.0939 9.74113 21.0939 9.68906C21.0939 9.63708 21.053 9.55166 21.001 9.50334L20.9119 9.41052H17.4908H14.0697L13.9805 9.50334Z" fill="white"/>
<path fill-rule="evenodd" clip-rule="evenodd" d="M17.4908 18.8752H11.436V19.9331V20.9909H17.4908H23.5455V19.9331V18.8752H17.4908Z" fill="white"/>
<path fill-rule="evenodd" clip-rule="evenodd" d="M23.4674 23.4036H17.4907H11.514L11.4583 23.4853C11.4099 23.5521 11.3988 23.6784 11.3988 24.0982V24.6293H17.4907H23.5826V24.0982C23.5826 23.6784 23.5715 23.5521 23.5232 23.4853L23.4674 23.4036Z" fill="white"/>
</svg>
