<svg width="30" height="24" viewBox="0 0 30 24" fill="none" xmlns="http://www.w3.org/2000/svg">
<path d="M13.5352 0.0468292C9.69726 0.345657 6.20508 1.68159 3.65625 3.82027C1.83398 5.34956 0.615234 7.28902 0.164062 9.38081C-0.0175781 10.2363 -0.0175781 11.7714 0.164062 12.6269C0.673828 14.9882 2.0918 17.0449 4.36523 18.7382C7.88086 21.3574 13.0078 22.5058 17.9238 21.7851C18.3516 21.7207 19.0605 21.5859 19.4941 21.4863L20.2793 21.3105L20.7539 21.6152C21.8262 22.3007 23.3496 22.8808 24.8906 23.1914C26.0508 23.4199 26.8418 23.5019 28.0781 23.5078C29.0391 23.5136 29.1211 23.5078 29.2793 23.3906C29.4492 23.2617 29.5078 23.0507 29.4492 22.8046C29.4199 22.705 29.3027 22.6113 29.0273 22.4765C28.2832 22.1132 27.4512 21.041 26.5605 19.2949L26.1094 18.4043L26.3379 18.205C28.207 16.6054 29.3848 14.7246 29.8359 12.6269C30.0176 11.7656 30.0176 10.2304 29.8359 9.38081C29.4375 7.53511 28.541 5.95894 27.041 4.47066C24.7207 2.1562 21.1934 0.580032 17.3437 0.13472C16.3594 0.0233917 14.4316 -0.0234833 13.5352 0.0468292ZM16.2305 1.04292C19.834 1.31245 22.793 2.34956 25.2656 4.21284C25.8984 4.69331 27.0117 5.81831 27.4395 6.41597C29.4316 9.21675 29.5078 12.4335 27.6387 15.2695C27.1582 15.996 26.5254 16.7168 25.8574 17.2968C24.9668 18.0644 24.9375 18.2988 25.5937 19.623C26.0215 20.496 26.6309 21.4804 27.1465 22.1308L27.4453 22.5058L26.8945 22.4648C24.709 22.2949 22.5996 21.6386 21.123 20.666C20.8184 20.4668 20.5723 20.3496 20.4199 20.3378C20.2734 20.3203 19.8223 20.3906 19.248 20.5195C14.918 21.4804 10.418 20.9648 6.81445 19.0898C3.70898 17.4785 1.72266 15.1464 1.13672 12.4101C0.990234 11.7187 0.990234 10.289 1.13672 9.59761C1.73437 6.80855 3.7793 4.4355 6.95508 2.83589C9.07617 1.76949 11.2207 1.2187 14.0039 1.02534C14.6191 0.97847 15.4922 0.990189 16.2305 1.04292Z" fill="white"/>
<path d="M14.3906 2.56641C14.0039 2.66602 13.4942 2.97656 13.1836 3.30469C12.0117 4.54688 12.416 6.52734 13.9863 7.27148C14.3555 7.44727 14.4317 7.45898 15 7.45898C15.5684 7.45898 15.6446 7.44727 16.0137 7.27148C17.0977 6.75586 17.6778 5.63086 17.4375 4.50586C17.2735 3.73242 16.793 3.11719 16.0781 2.76562C15.7031 2.57812 15.586 2.54883 15.1348 2.53125C14.8535 2.51953 14.5196 2.53711 14.3906 2.56641ZM15.6797 3.66797C15.961 3.81445 16.2656 4.14258 16.3887 4.43555C16.4414 4.55273 16.4766 4.80469 16.4766 4.99805C16.4766 5.41406 16.377 5.68359 16.1074 5.99414C15.4512 6.73828 14.2442 6.62109 13.711 5.75977C13.2305 4.98047 13.6231 3.91406 14.5078 3.58594C14.8125 3.47461 15.375 3.50977 15.6797 3.66797Z" fill="white"/>
<path d="M7.16015 4.16602C6.86718 4.48242 7.08398 4.96875 7.51757 4.96875C7.79296 4.96875 7.96874 4.78711 7.96874 4.5C7.96874 4.07813 7.44726 3.86133 7.16015 4.16602Z" fill="white"/>
<path d="M5.44336 5.30269C4.92773 5.67769 4.18945 6.42769 3.75586 7.01948C2.98242 8.06245 2.51953 9.29292 2.51953 10.3066C2.51953 10.7285 2.55469 10.8105 2.75977 10.916C2.98828 11.039 3.13477 11.0273 3.31641 10.8691C3.45117 10.7519 3.47461 10.6757 3.52148 10.207C3.65039 8.80073 4.5 7.36519 5.87695 6.23433C6.1875 5.98238 6.45703 5.72456 6.47461 5.66597C6.5332 5.49019 6.45117 5.20894 6.31055 5.11519C6.08203 4.95698 5.8418 5.00386 5.44336 5.30269Z" fill="white"/>
<path d="M13.0078 8.60152C12.6211 8.73043 12.1875 9.16402 12.082 9.52144C12.041 9.65621 12.0117 10.0957 12.0117 10.541C12.0117 11.2382 12.0293 11.3613 12.1523 11.6191C12.3691 12.0937 12.8789 12.4687 13.3008 12.4687H13.4766V13.9921V15.5156H13.3125C13.0781 15.5156 12.5684 15.7851 12.3867 16.0019C12.0469 16.4003 12 16.6113 12.0234 17.5839C12.0469 18.5625 12.082 18.6855 12.4453 19.0488C12.8672 19.4765 12.832 19.4707 15.4043 19.4882C17.9238 19.5058 18.0059 19.4941 18.4277 19.1718C18.5449 19.0839 18.709 18.8906 18.7969 18.7441C18.9434 18.4921 18.9551 18.4277 18.9727 17.6015C18.9961 16.623 18.9434 16.3711 18.6094 15.9961C18.4102 15.7675 17.9297 15.5156 17.6836 15.5156H17.5254L17.5078 12.5683L17.4902 9.62691L17.3145 9.30464C17.0977 8.91207 16.7402 8.63082 16.3477 8.54879C16.1777 8.51363 15.457 8.48433 14.6895 8.48433C13.5117 8.49019 13.2891 8.50191 13.0078 8.60152ZM16.2246 9.56832C16.3184 9.61519 16.4238 9.73238 16.459 9.83785C16.5 9.96675 16.5234 10.998 16.5234 13.0898C16.5234 14.7714 16.541 16.1953 16.5586 16.248C16.623 16.4121 16.9102 16.5117 17.3145 16.5117C17.6484 16.5117 17.7187 16.5293 17.8418 16.6582C17.9824 16.7929 17.9883 16.8339 17.9883 17.4902C17.9824 18.2109 17.959 18.3046 17.7129 18.4336C17.5312 18.5332 13.4648 18.5332 13.2832 18.4336C13.0371 18.3046 13.0137 18.2109 13.0078 17.4902C13.0078 16.8339 13.0137 16.7929 13.1543 16.6582C13.2773 16.5293 13.3477 16.5117 13.6816 16.5117C14.0859 16.5117 14.373 16.4121 14.4375 16.248C14.4551 16.1953 14.4727 15.1699 14.4727 13.9687V11.7832L14.332 11.6543C14.2207 11.5488 14.0918 11.5136 13.7109 11.4785C13.043 11.4199 13.0078 11.373 13.0078 10.5117C13.0078 9.81441 13.0605 9.64449 13.3242 9.53902C13.3887 9.50972 14.0332 9.48629 14.7539 9.48629C15.7969 9.48043 16.0957 9.498 16.2246 9.56832Z" fill="white"/>
</svg>
