<svg width="30" height="30" viewBox="0 0 30 30" fill="none" xmlns="http://www.w3.org/2000/svg">
<path d="M19.6582 0.0761738C19.1016 0.263674 18.6739 0.632814 18.4453 1.11328L18.3106 1.40039L17.0918 1.40625C16.1485 1.40625 15.8379 1.42383 15.7149 1.48828C15.627 1.53516 14.625 2.50781 13.4825 3.65039L11.4082 5.73047L11.1973 5.63672C11.0625 5.57813 10.8047 5.54297 10.4883 5.54297C10.0723 5.53711 9.93753 5.56055 9.668 5.68946C9.26956 5.87696 8.89456 6.2461 8.71878 6.6211L8.58401 6.90821L7.86917 6.91406H7.14847L7.13675 3.62696L7.11917 0.339846L6.95511 0.199221C6.73245 0.00586128 6.39261 0.00586128 6.16995 0.199221L6.00589 0.339846L5.98831 3.62696L5.97659 6.91406H4.93362L3.89651 6.90821L3.76175 6.6211C3.58597 6.25196 3.2344 5.90039 2.82425 5.70117C2.53714 5.56055 2.41995 5.53711 1.99222 5.53711C1.57034 5.53711 1.44729 5.56055 1.1719 5.69531C0.755887 5.90039 0.392606 6.26367 0.187528 6.67383C0.0527621 6.95508 0.0293246 7.07813 0.0293246 7.5C0.0293246 7.92188 0.0527621 8.04492 0.187528 8.32617C0.392606 8.73633 0.755887 9.09961 1.1719 9.30469C1.44729 9.43946 1.57034 9.46289 1.99222 9.46289C2.41995 9.46289 2.53714 9.43946 2.82425 9.29883C3.2344 9.09961 3.58597 8.74805 3.76175 8.37891L3.89651 8.0918L4.93362 8.08594H5.97073L5.98831 9.32227L6.00589 10.5586L6.16995 10.6992C6.28128 10.793 6.40433 10.8398 6.56253 10.8398C6.72073 10.8398 6.84378 10.793 6.95511 10.6992L7.11917 10.5586L7.13675 9.32227L7.15433 8.08594H7.86917L8.58401 8.0918L8.71292 8.37305C8.8887 8.73633 9.2637 9.10547 9.668 9.30469C9.94339 9.43946 10.0664 9.46289 10.4883 9.46289C10.916 9.46289 11.0332 9.43946 11.3203 9.29883C11.7305 9.09961 12.0821 8.74805 12.2578 8.37891L12.3926 8.0918L15.6621 8.08594H18.9258V10.8984C18.9258 13.2305 18.9375 13.7461 19.0078 13.875C19.0547 13.9629 19.3301 14.2676 19.6172 14.5488L20.1387 15.0645L20.0332 15.3691C19.8985 15.7559 19.8985 16.2363 20.0332 16.623L20.1328 16.9277L18.3633 18.6973L16.5879 20.4727L16.336 20.3848C15.9903 20.2734 15.2637 20.2793 14.9649 20.4023L14.7246 20.502L13.7637 19.5352C13.2364 19.002 12.7325 18.5273 12.6446 18.4805C12.5157 18.416 12.1055 18.3984 10.4766 18.3984H8.46097L8.38479 18.1934C8.27933 17.8887 7.72268 17.3145 7.41214 17.1914L7.15433 17.0801L7.13675 16.1836L7.11917 15.2813L6.95511 15.1406C6.71487 14.9355 6.37503 14.9473 6.14651 15.1699L5.97659 15.3398V16.2129L5.97073 17.0801L5.68362 17.2148C5.32034 17.3848 4.96292 17.7422 4.793 18.1055L4.65823 18.3926L2.56057 18.3984C0.287137 18.3984 0.210965 18.4102 0.0703402 18.7207C-0.0234098 18.9199 -0.0175505 19.0723 0.0820589 19.2715C0.234403 19.5586 0.316434 19.5703 2.56643 19.5703L4.65823 19.5762L4.793 19.8633C4.96878 20.2324 5.32034 20.584 5.7305 20.7832C6.01761 20.9238 6.13479 20.9473 6.56253 20.9473C6.9844 20.9473 7.10745 20.9238 7.38284 20.7891C7.78714 20.5898 8.16214 20.2207 8.33792 19.8574L8.46683 19.5762L10.2832 19.5703H12.0996L12.9903 20.4609L13.8867 21.3574L13.7989 21.5918C13.6875 21.9023 13.6875 22.5996 13.7989 22.916L13.8926 23.168L12.6153 24.4453L11.3379 25.7227H10.8399H10.336L10.2071 25.459C10.0196 25.0723 9.64456 24.6914 9.2637 24.5098C8.98831 24.375 8.85354 24.3516 8.43753 24.3457C7.98636 24.3457 7.89847 24.3633 7.5469 24.5391C7.11917 24.7441 6.82034 25.0488 6.61526 25.4707L6.49222 25.7227H5.19729L3.89651 25.7168L3.76175 25.4297C3.58597 25.0547 3.21097 24.6855 2.81253 24.498C2.543 24.3691 2.40823 24.3457 1.99222 24.3457C1.3887 24.3457 0.996122 24.5039 0.591825 24.9082C0.187528 25.3125 0.0293246 25.7051 0.0293246 26.3086C0.0293246 26.7363 0.052762 26.8535 0.193387 27.1406C0.398465 27.5625 0.738309 27.9023 1.16018 28.1074C1.44729 28.248 1.56448 28.2715 1.99222 28.2715C2.41409 28.2715 2.53714 28.248 2.81253 28.1133C3.21683 27.9141 3.59183 27.5449 3.76761 27.1816L3.89651 26.9004L5.19729 26.8945H6.49222L6.61526 27.1465C6.82034 27.5684 7.11917 27.873 7.5469 28.0781C7.89847 28.2539 7.98636 28.2715 8.43753 28.2715C8.86526 28.2656 8.98245 28.2422 9.27542 28.0957C9.66214 27.9023 10.0196 27.5449 10.2071 27.1582L10.336 26.8945H11.0332C11.42 26.8945 11.7832 26.8652 11.8535 26.8301C11.9239 26.7949 12.6035 26.1504 13.3594 25.3945L14.7364 24.0293L15.0586 24.1406C15.4571 24.2813 15.8789 24.2813 16.2598 24.1465L16.5528 24.0469L18.0821 25.5586L19.6055 27.0762L19.4942 27.4102C19.1836 28.3242 19.6465 29.3613 20.5664 29.8125C20.8418 29.9473 20.9649 29.9707 21.3868 29.9707C21.8086 29.9707 21.9317 29.9473 22.2129 29.8125C22.6231 29.6074 22.9864 29.2441 23.1914 28.8281C23.3262 28.5527 23.3496 28.4297 23.3496 28.0078C23.3496 27.5801 23.3262 27.4629 23.1856 27.1758C22.7403 26.2617 21.7032 25.8047 20.7891 26.1152L20.4551 26.2266L18.9492 24.7207L17.4434 23.2148L17.543 22.9336C17.666 22.5762 17.666 21.9551 17.543 21.5977L17.4434 21.3164L19.2129 19.5469L20.9825 17.7773L21.2871 17.877C21.6739 18.0117 22.1543 18.0117 22.541 17.877L22.8457 17.7773L24.5391 19.4766L26.2383 21.1816L26.1446 21.3867C26.086 21.5156 26.0508 21.7734 26.0508 22.0898C26.045 22.5117 26.0684 22.6406 26.1973 22.9102C26.3907 23.3203 26.7774 23.707 27.1875 23.9004C27.4571 24.0293 27.5918 24.0527 28.0078 24.0527C28.4239 24.0527 28.5586 24.0293 28.8282 23.9004C29.2383 23.707 29.6016 23.3438 29.8067 22.9219C30.0235 22.4766 30.041 21.7441 29.8418 21.3164C29.666 20.9297 29.2266 20.4785 28.834 20.291C28.5528 20.1504 28.4356 20.127 28.0078 20.1328C27.6856 20.1328 27.4395 20.168 27.3047 20.2266L27.0996 20.3203L25.3946 18.6211L23.6836 16.916L23.7774 16.7051C23.9063 16.4121 23.9063 15.627 23.7774 15.3164L23.6836 15.0762L25.0957 13.6641L26.5137 12.2461H28.0196C29.6426 12.2461 29.7715 12.2285 29.918 11.9473C30.0762 11.6426 29.9649 11.2734 29.6778 11.1445C29.4375 11.0332 26.1797 11.0449 25.9688 11.1563C25.8809 11.2031 25.1426 11.9121 24.3223 12.7324L22.8399 14.2207L22.4766 14.1094C22.0782 13.9805 21.545 13.9922 21.1934 14.1445L20.9883 14.2266L20.543 13.7754L20.0977 13.3301V10.3594C20.0977 8.17969 20.0801 7.34766 20.0274 7.23633C19.8809 6.90821 19.9453 6.91406 16.0137 6.91406H12.3867L12.3223 6.74414C12.2637 6.58008 12.2813 6.55664 14.2617 4.57617L16.2598 2.57813H17.2852L18.3106 2.58399L18.4395 2.86524C18.6153 3.23438 18.9961 3.60938 19.3946 3.80274C19.6641 3.93164 19.7989 3.95508 20.2149 3.95508C20.6426 3.95508 20.7598 3.93164 21.0469 3.79102C21.4571 3.5918 21.8086 3.24024 21.9844 2.8711L22.1192 2.58399H23.2325H24.3457L24.4805 2.8711C24.6563 3.2461 25.0313 3.61524 25.4297 3.80274C25.6992 3.93164 25.834 3.95508 26.25 3.95508C26.6778 3.95508 26.795 3.93164 27.0821 3.79102C27.4922 3.5918 27.8438 3.24024 28.0196 2.8711L28.1543 2.58399L28.8399 2.57813C29.5957 2.57813 29.7891 2.52539 29.918 2.2793C30.0235 2.07422 30.0235 1.91016 29.918 1.70508C29.7891 1.45899 29.5957 1.40625 28.8399 1.40625L28.1543 1.40039L28.0196 1.11328C27.8438 0.744143 27.4922 0.39258 27.0821 0.193361C26.795 0.0527363 26.6778 0.0292988 26.25 0.0292988C25.834 0.0292988 25.6992 0.0527363 25.4297 0.181643C25.0313 0.369143 24.6563 0.738283 24.4805 1.11328L24.3457 1.40039H23.2325H22.1192L21.9844 1.11328C21.6856 0.480471 21.0352 0.0527363 20.3145 0.0234394C20.0684 0.0117207 19.793 0.0351582 19.6582 0.0761738ZM20.6778 1.33008C21.1758 1.69922 21.1172 2.42578 20.5606 2.70703C20.2969 2.8418 20.0567 2.8418 19.8164 2.69531C19.2657 2.36133 19.2657 1.63477 19.8164 1.28321C20.0508 1.13672 20.4434 1.16016 20.6778 1.33008ZM26.7129 1.33008C27.211 1.69922 27.1524 2.42578 26.5957 2.70703C26.3321 2.8418 26.0918 2.8418 25.8516 2.69531C25.3008 2.36133 25.3008 1.63477 25.8516 1.28321C26.086 1.13672 26.4785 1.16016 26.7129 1.33008ZM2.40823 6.81446C2.93558 7.16602 2.92386 7.875 2.38479 8.20313C2.01565 8.43164 1.52932 8.29102 1.28909 7.89844C0.861356 7.20117 1.72854 6.35742 2.40823 6.81446ZM10.9043 6.81446C11.4317 7.16602 11.42 7.875 10.8809 8.20313C10.5117 8.43164 10.0254 8.29102 9.78518 7.89844C9.35745 7.20117 10.2246 6.35742 10.9043 6.81446ZM22.3535 15.3164C22.8457 15.6387 22.834 16.3477 22.3301 16.6816C21.6387 17.1445 20.7657 16.2715 21.2285 15.5801C21.4864 15.1934 21.9903 15.0762 22.3535 15.3164ZM6.97854 18.2988C7.52347 18.6621 7.48831 19.4063 6.90823 19.6992C6.52151 19.8984 6.09964 19.7695 5.8594 19.3828C5.43167 18.6855 6.29886 17.8418 6.97854 18.2988ZM28.4707 21.4277C28.6641 21.5684 28.8282 21.8906 28.8282 22.1191C28.8282 22.3535 28.6407 22.6465 28.4063 22.793C27.8614 23.1211 27.1407 22.6699 27.2051 22.0371C27.2696 21.4102 27.9785 21.0703 28.4707 21.4277ZM16.0254 21.5273C16.6055 21.7734 16.6114 22.7168 16.0313 22.9922C15.7793 23.1094 15.5684 23.1094 15.3106 22.9863C15.041 22.8574 14.8828 22.5938 14.8828 22.2656C14.8828 21.6445 15.4395 21.2871 16.0254 21.5273ZM2.39065 25.6055C2.77737 25.8457 2.90628 26.2676 2.70706 26.6543C2.41409 27.2344 1.66995 27.2695 1.30667 26.7246C0.966825 26.2207 1.37698 25.4883 1.99222 25.4883C2.10354 25.4883 2.28518 25.541 2.39065 25.6055ZM8.75393 25.5703C9.21683 25.7637 9.37503 26.3906 9.06448 26.8008C8.59573 27.4102 7.61722 27.0879 7.61722 26.3145C7.61722 25.7051 8.18558 25.3301 8.75393 25.5703ZM21.8028 27.3223C22.459 27.7559 22.2422 28.7109 21.4629 28.8047C21.1817 28.8398 20.877 28.6875 20.7012 28.4238C20.2383 27.7324 21.1114 26.8594 21.8028 27.3223Z" fill="white"/>
<path d="M6.16992 12.5039C6.03516 12.6211 6.00586 12.6914 6.00586 12.9199C6.00586 13.2715 6.21094 13.4766 6.5625 13.4766C6.91406 13.4766 7.11914 13.2715 7.11914 12.9199C7.11914 12.5684 6.91406 12.3633 6.5625 12.3633C6.4043 12.3633 6.28125 12.4102 6.16992 12.5039Z" fill="white"/>
</svg>
