<svg width="10" height="20" viewBox="0 0 10 20" fill="none" xmlns="http://www.w3.org/2000/svg">
<path fill-rule="evenodd" clip-rule="evenodd" d="M9.25649 0H0.742868C0.333142 0 0 0.337536 0 0.753314V12.547C0 12.9622 0.333142 13.3004 0.742868 13.3004H4.43296V20H5.56704L5.5664 13.2997H9.25649C9.66686 13.2997 10 12.9622 10 12.547V0.753314C9.99936 0.338183 9.66686 0 9.25649 0ZM9.22075 9.57969C9.22075 9.82412 9.02355 10.0239 8.78231 10.0239H1.21705C0.975812 10.0239 0.779246 9.82412 0.779246 9.57969L0.778607 1.42063C0.778607 1.1762 0.975812 0.976398 1.21705 0.976398H8.78231C9.02291 0.976398 9.22012 1.1762 9.22012 1.42063L9.22075 9.57969Z" fill="white"/>
<path fill-rule="evenodd" clip-rule="evenodd" d="M1.21701 10.0238H8.78227C9.02351 10.0238 9.22071 9.82404 9.22071 9.57961L9.22007 1.42055C9.22007 1.17612 9.02287 0.976318 8.78227 0.976318H1.21701C0.975769 0.976318 0.778564 1.17612 0.778564 1.42055L0.779203 9.57961C0.779203 9.82404 0.975769 10.0238 1.21701 10.0238Z" fill="#1D8AFF"/>
<path d="M7.87019 5.49017L7.56118 4.75959C7.50667 4.63253 7.4193 4.52483 7.30939 4.44927C7.19953 4.37371 7.07176 4.33344 6.94118 4.33325H2.50815C2.35092 4.33344 2.20021 4.40039 2.089 4.51947C1.97784 4.6386 1.91534 4.80005 1.91516 4.96848V6.55608C1.91516 6.64843 1.9494 6.73694 2.01034 6.80227C2.07132 6.86754 2.15395 6.90422 2.24016 6.90422H2.72516C2.75601 7.06691 2.85552 7.20512 2.99462 7.27834C3.13369 7.35156 3.29664 7.35156 3.4357 7.27834C3.57481 7.20512 3.67431 7.06691 3.70516 6.90422H6.12516C6.15601 7.06691 6.25551 7.20512 6.39462 7.27834C6.53368 7.35156 6.69663 7.35156 6.83569 7.27834C6.9748 7.20512 7.07431 7.06691 7.10516 6.90422H7.63717C7.6973 6.90417 7.75578 6.88332 7.80396 6.84468C7.85208 6.80604 7.88722 6.75181 7.90418 6.68998C7.91137 6.66281 7.91507 6.63469 7.91516 6.60643V5.71197C7.91512 5.63545 7.89976 5.55985 7.87016 5.49022L7.87019 5.49017ZM2.41523 5.61872C2.36001 5.61872 2.31523 5.57075 2.31523 5.5116V4.65462C2.31523 4.59547 2.36001 4.5475 2.41523 4.5475H3.11523C3.14175 4.5475 3.16719 4.55879 3.18594 4.57887C3.20469 4.59896 3.21523 4.62622 3.21523 4.65462V5.5116C3.21523 5.54 3.20469 5.56726 3.18594 5.58735C3.16719 5.60743 3.14175 5.61872 3.11523 5.61872H2.41523ZM3.21523 7.11842C3.13568 7.11842 3.05933 7.08456 3.00309 7.02431C2.94685 6.96405 2.91523 6.88227 2.91523 6.79706C2.91523 6.71186 2.94684 6.63006 3.00309 6.56982C3.05934 6.50957 3.13569 6.4757 3.21523 6.4757C3.29477 6.4757 3.37113 6.50956 3.42737 6.56982C3.48361 6.63008 3.51522 6.71186 3.51522 6.79706C3.515 6.88223 3.4833 6.96382 3.4271 7.02403C3.37089 7.08424 3.29473 7.11819 3.21522 7.11843L3.21523 7.11842ZM4.31523 5.5116C4.31523 5.54 4.30469 5.56726 4.28594 5.58735C4.26719 5.60743 4.24174 5.61872 4.21523 5.61872H3.51523C3.46001 5.61872 3.41523 5.57075 3.41523 5.5116V4.65462C3.41523 4.59547 3.46001 4.5475 3.51523 4.5475H4.21523C4.24174 4.5475 4.26719 4.55879 4.28594 4.57887C4.30469 4.59896 4.31523 4.62622 4.31523 4.65462V5.5116ZM5.41523 5.5116C5.41523 5.54 5.40469 5.56726 5.38594 5.58735C5.36719 5.60743 5.34174 5.61872 5.31523 5.61872H4.61523C4.56 5.61872 4.51523 5.57075 4.51523 5.5116V4.65462C4.51523 4.59547 4.56 4.5475 4.61523 4.5475H5.31523C5.34174 4.5475 5.36719 4.55879 5.38594 4.57887C5.40469 4.59896 5.41523 4.62622 5.41523 4.65462V5.5116ZM5.71523 5.61872C5.66 5.61872 5.61523 5.57075 5.61523 5.5116V4.65462C5.61523 4.59547 5.66 4.5475 5.71523 4.5475H6.41522C6.44174 4.5475 6.46719 4.55879 6.48594 4.57887C6.50469 4.59896 6.51522 4.62622 6.51522 4.65462V5.5116C6.51522 5.54 6.50469 5.56726 6.48594 5.58735C6.46719 5.60743 6.44174 5.61872 6.41522 5.61872H5.71523ZM6.61522 7.11842C6.53567 7.11842 6.45933 7.08456 6.40309 7.02431C6.34685 6.96405 6.31523 6.88227 6.31523 6.79706C6.31523 6.71186 6.34684 6.63006 6.40309 6.56982C6.45934 6.50957 6.53568 6.4757 6.61522 6.4757C6.69477 6.4757 6.77112 6.50956 6.82736 6.56982C6.8836 6.63008 6.91522 6.71186 6.91522 6.79706C6.915 6.88223 6.8833 6.96382 6.82709 7.02403C6.77089 7.08424 6.69473 7.11819 6.61522 7.11843L6.61522 7.11842ZM6.80724 5.61872C6.75536 5.61375 6.71554 5.56736 6.71523 5.5116V4.65367C6.71523 4.59504 6.7596 4.5475 6.81433 4.5475H6.94121C7.03345 4.54774 7.12363 4.57625 7.20121 4.62957C7.27885 4.68289 7.34058 4.75883 7.37925 4.8485L7.68826 5.57908H7.68822C7.70438 5.61715 7.71322 5.65832 7.71425 5.70012L6.80724 5.61872Z" fill="white"/>
</svg>
