<svg width="30" height="30" viewBox="0 0 30 30" fill="none" xmlns="http://www.w3.org/2000/svg">
<path d="M14.2676 0.0585957C13.418 0.216799 12.6797 0.609377 12.0352 1.25391C11.5078 1.78125 11.1973 2.2793 10.9688 2.97656C10.8457 3.35156 10.8223 3.54492 10.8164 4.13086C10.8164 4.79297 10.8281 4.86914 11.0273 5.45508C11.1445 5.80078 11.3848 6.39844 11.5664 6.79102L11.8887 7.5H7.95703C5.04492 7.5 3.9668 7.51758 3.78516 7.57031C3.46289 7.66406 2.97656 8.15039 2.88281 8.47266C2.8418 8.60742 2.8125 8.94141 2.8125 9.2168V9.72071L1.40625 12.0586L0 14.4023V15.4629V16.5234L0.9375 18.3984L1.875 20.2734V24.9902V29.7129L2.02148 29.8535L2.16211 30H15H27.8379L27.9785 29.8535L28.125 29.7129V24.9902V20.2734L29.0625 18.3984L30 16.5234V15.4629V14.4023L28.5938 12.0586L27.1875 9.72071V9.2168C27.1875 8.57227 27.1055 8.31446 26.7949 7.96875C26.3555 7.48242 26.5488 7.5 22.0547 7.5H18.1113L18.4395 6.78516C18.6152 6.39258 18.8555 5.78906 18.9727 5.44922C19.166 4.875 19.1836 4.78711 19.1777 4.13086C19.1777 3.53906 19.1543 3.35742 19.0312 2.97656C18.8027 2.2793 18.4922 1.78125 17.9648 1.25391C17.1562 0.451174 16.2891 0.0703144 15.1758 0.0292988C14.8359 0.01758 14.4316 0.0292988 14.2676 0.0585957ZM16.0605 1.125C16.6055 1.32422 16.9219 1.52344 17.3086 1.91016C18.1113 2.71289 18.4395 3.81446 18.1758 4.83399C17.9355 5.79492 17.1738 7.35352 16.002 9.28711C15.3516 10.3594 15.041 10.8398 15 10.8398C14.9238 10.8398 13.6523 8.74805 13.0137 7.58789C12.2402 6.16992 11.7188 4.80469 11.7188 4.18946C11.7188 3.00586 12.457 1.83399 13.5527 1.29492C13.8164 1.16602 14.168 1.03125 14.3262 1.00196C14.8008 0.908205 15.6152 0.966799 16.0605 1.125ZM12.6328 8.83008C12.9375 9.38086 13.8105 10.793 14.3027 11.5195C14.7246 12.1465 14.8418 12.2402 15.1465 12.1641C15.2461 12.1406 15.416 11.9473 15.6914 11.5254C16.1953 10.7754 16.875 9.68555 17.2793 8.97656L17.5898 8.4375H21.7793H25.9629L26.1035 8.58399C26.2266 8.70117 26.25 8.78321 26.25 9.05274V9.375H22.1777H18.0996L17.959 9.52149C17.7656 9.70899 17.7656 9.97852 17.959 10.166L18.0996 10.3125H22.2773H26.4551L27.5801 12.1875L28.7051 14.0625H15H1.29492L2.41992 12.1875L3.54492 10.3125H7.72266H11.9004L12.041 10.166C12.1348 10.0781 12.1875 9.95508 12.1875 9.84375C12.1875 9.73242 12.1348 9.60938 12.041 9.52149L11.9004 9.375H7.82227H3.75V9.05274C3.75 8.78321 3.77344 8.70117 3.89648 8.58399L4.03711 8.4375H8.22656H12.4102L12.6328 8.83008ZM29.0625 15.4688V15.9375H15H0.9375V15.4688V15H15H29.0625V15.4688ZM1.875 17.502C1.875 17.8418 1.86328 18.1113 1.85156 18.0996C1.83984 18.0879 1.69336 17.8066 1.5293 17.4727L1.23047 16.875H1.55273H1.875V17.502ZM10.3125 18.1348C10.3125 19.4004 10.3125 19.4004 10.459 19.541C10.5469 19.6348 10.6699 19.6875 10.7812 19.6875C10.8926 19.6875 11.0156 19.6348 11.1035 19.541C11.25 19.4004 11.25 19.4004 11.25 18.1348V16.875H15H18.75V22.9688V29.0625H15H11.25V24.9902V20.9121L11.1035 20.7715C10.916 20.5781 10.6465 20.5781 10.459 20.7715L10.3125 20.9121V23.1152V25.3125H6.5625H2.8125V21.0938V16.875H6.5625H10.3125V18.1348ZM27.1875 21.0938V25.3125H23.4375H19.6875V21.0938V16.875H23.4375H27.1875V21.0938ZM28.4707 17.4727C28.3066 17.8066 28.1602 18.0879 28.1484 18.0996C28.1367 18.1113 28.125 17.8418 28.125 17.502V16.875H28.4473H28.7695L28.4707 17.4727ZM10.3125 27.6563V29.0625H6.5625H2.8125V27.6563V26.25H6.5625H10.3125V27.6563ZM27.1875 27.6563V29.0625H23.4375H19.6875V27.6563V26.25H23.4375H27.1875V27.6563Z" fill="white"/>
<path d="M14.4492 1.93359C14.0801 2.02734 13.5527 2.34375 13.2949 2.61914C13.166 2.75977 12.9727 3.05273 12.873 3.26953C12.7031 3.62695 12.6855 3.71484 12.6855 4.22461C12.6855 4.75195 12.6973 4.80469 12.9023 5.22656C13.166 5.75977 13.5059 6.08789 14.0508 6.3457C14.4082 6.51562 14.4961 6.5332 15 6.5332C15.5039 6.5332 15.5918 6.51562 15.9492 6.3457C16.166 6.24609 16.459 6.05273 16.6055 5.91211C16.9746 5.57812 17.2734 4.95703 17.3262 4.44141C17.3555 4.07812 17.3496 4.04297 17.209 3.90234C16.9102 3.60352 16.4063 3.80273 16.4063 4.22461C16.4063 4.94531 15.7207 5.625 15 5.625C14.6309 5.625 14.332 5.49023 14.0332 5.18555C13.459 4.61719 13.4414 3.88477 13.9863 3.28125C14.3965 2.82422 14.9414 2.70117 15.5391 2.92969C15.9316 3.07617 16.0606 3.07617 16.2188 2.92969C16.5352 2.63086 16.4121 2.30273 15.9023 2.06836C15.5391 1.9043 14.8359 1.83984 14.4492 1.93359Z" fill="white"/>
<path d="M17.0215 22.6465C16.7285 22.9336 16.9336 23.4375 17.3438 23.4375C17.584 23.4375 17.8125 23.209 17.8125 22.9688C17.8125 22.7285 17.584 22.5 17.3438 22.5C17.2324 22.5 17.1094 22.5527 17.0215 22.6465Z" fill="white"/>
</svg>
