<svg width="40" height="40" viewBox="0 0 40 40" fill="none" xmlns="http://www.w3.org/2000/svg">
<path d="M28.0074 11.2832C22.9171 6.56663 14.9691 6.64605 10.0486 11.5666C5.00854 16.6066 5.03242 24.8314 10.1005 29.8994C15.1685 34.9675 23.3933 34.9913 28.4333 29.9513C30.4351 27.9496 31.6963 25.4097 32.0812 22.6065C32.1859 21.8464 31.6535 21.1417 30.8918 21.0325C30.1322 20.9234 29.4294 21.4518 29.325 22.2126C29.0221 24.4123 28.0317 26.4062 26.4594 27.9785C22.5011 31.9368 16.0423 31.9182 12.0615 27.9374C8.08044 23.9564 8.06218 17.4976 12.0203 13.5394C15.8593 9.70043 22.0432 9.6147 26.0443 13.2443L24.5416 14.747L27.8787 15.5826L31.2164 16.4188L30.3798 13.0815L29.5438 9.74478L28.0063 11.2826L28.0074 11.2832Z" fill="white"/>
</svg>
