<svg width="30" height="30" viewBox="0 0 30 30" fill="none" xmlns="http://www.w3.org/2000/svg">
<path d="M5.54297 0.0586052C4.15429 0.281261 2.94726 0.878918 1.96289 1.84571C1.18359 2.60743 0.71484 3.33985 0.369136 4.33595C0.099605 5.09767 0.0292925 5.56056 0.0351519 6.50392C0.0410113 7.85157 0.316402 8.75977 1.10742 10.0606C1.35937 10.4766 2.44922 12.2695 3.5332 14.0508C4.61718 15.8262 5.50781 17.3027 5.50781 17.3262C5.50781 17.3438 5.40234 17.4492 5.27929 17.5606C4.71679 18.0352 4.54101 18.9551 4.88086 19.6406C5.49023 20.877 7.2539 20.9473 7.93945 19.7578L8.11523 19.4531L10.6055 19.4707C12.9961 19.4824 13.1074 19.4883 13.3652 19.6055C13.752 19.7871 14.0332 20.0625 14.2207 20.4375C14.3555 20.7129 14.3848 20.8477 14.3848 21.2109C14.3789 21.9375 14.0566 22.4648 13.4297 22.7754L13.0957 22.9395L9.05273 22.9688C5.0625 22.998 5.0039 22.998 4.66992 23.127C3.26367 23.6602 2.46093 25.0723 2.75976 26.4961C2.98828 27.5918 3.93164 28.5352 5.02734 28.7637C5.23242 28.8047 6.41015 28.8281 8.47265 28.8281C11.8711 28.8281 11.8535 28.8281 12 28.5059C12.041 28.4238 12.0703 28.3008 12.0703 28.2363C12.0703 28.0723 11.918 27.7969 11.7949 27.7383C11.7363 27.709 10.2246 27.6738 8.4375 27.6563L5.18554 27.627L4.85156 27.4629C4.22461 27.1523 3.89648 26.6191 3.89648 25.8984C3.89648 25.1777 4.22461 24.6445 4.85156 24.334L5.18554 24.1699L9.22851 24.1406C13.2187 24.1113 13.2773 24.1113 13.6113 23.9824C15.0176 23.4492 15.8203 22.0371 15.5215 20.6133C15.293 19.5176 14.3496 18.5742 13.2539 18.3457C13.0547 18.3047 12.0645 18.2813 10.5293 18.2813H8.11523L7.97461 18.0117C7.89258 17.8652 7.72851 17.6602 7.60547 17.5547C7.48242 17.4492 7.38281 17.3438 7.38281 17.3262C7.38281 17.3027 8.27343 15.8262 9.35742 14.0508C10.4414 12.2695 11.5312 10.4766 11.7832 10.0606C12.0352 9.6504 12.3223 9.10548 12.4219 8.84766C13.3594 6.40431 12.8437 3.8086 11.0449 1.9629C10.1191 1.01368 9.04687 0.416027 7.76367 0.140636C7.26562 0.0293083 6.01758 -0.0117073 5.54297 0.0586052ZM7.76367 1.34767C9.59765 1.82228 11.0449 3.26954 11.5488 5.12696C11.6543 5.50782 11.6777 5.75392 11.6777 6.44532C11.6777 7.38868 11.5781 7.9043 11.25 8.60157C11.0742 8.97657 6.49804 16.5234 6.44531 16.5234C6.39258 16.5234 1.8164 8.98243 1.64062 8.60157C1.3125 7.9043 1.21289 7.38868 1.21289 6.44532C1.21289 5.75392 1.23632 5.50782 1.34179 5.12696C1.88086 3.12892 3.48632 1.64064 5.49609 1.25978C6.10547 1.14259 7.14843 1.18361 7.76367 1.34767ZM6.73242 18.3633C7.125 18.5684 7.11328 19.2012 6.70898 19.3828C6.41015 19.5176 6.08203 19.4238 5.9414 19.1543C5.66601 18.6211 6.19922 18.0879 6.73242 18.3633Z" fill="white"/>
<path d="M5.75977 3.59766C4.47656 3.9082 3.51562 5.12695 3.51562 6.44531C3.51562 8.02734 4.86328 9.375 6.44531 9.375C8.02734 9.375 9.375 8.02734 9.375 6.44531C9.375 4.83984 8.00977 3.49805 6.39844 3.52148C6.2168 3.52148 5.92969 3.55664 5.75977 3.59766ZM7.23047 4.88672C7.8457 5.18555 8.17383 5.73047 8.17383 6.44531C8.17383 6.94336 8.05078 7.27734 7.74023 7.63477C7.25977 8.17383 6.35156 8.34375 5.67188 8.00977C4.73438 7.54687 4.41211 6.38086 4.98047 5.49023C5.44922 4.75195 6.42188 4.49414 7.23047 4.88672Z" fill="white"/>
<path d="M22.6524 9.78519C21.2637 10.0078 20.0567 10.6055 19.0723 11.5723C18.293 12.334 17.8242 13.0664 17.4785 14.0625C17.2031 14.836 17.1387 15.2813 17.1445 16.2598C17.1504 16.9981 17.1738 17.2266 17.3027 17.7012C17.5723 18.7325 17.7481 19.043 20.0567 22.67C21.2813 24.5918 22.3594 26.2911 22.459 26.4434L22.6289 26.7246L22.4004 26.9239C22.2715 27.0293 22.1074 27.2403 22.0254 27.3868L21.8848 27.6563H19.2656C16.4531 27.6563 16.4063 27.6621 16.2539 27.9551C16.0957 28.2598 16.207 28.6289 16.4942 28.7578C16.6055 28.8106 17.3613 28.8282 19.2656 28.8282L21.8848 28.834L22.0606 29.1328C22.6055 30.0762 23.9004 30.2696 24.7442 29.5371C25.2832 29.0567 25.4531 28.1485 25.1192 27.4688C25.0254 27.2813 24.8496 27.0411 24.7149 26.9297L24.4805 26.7246L24.6504 26.4434C24.75 26.2911 25.8281 24.5918 27.0527 22.67C28.4531 20.4727 29.3496 19.0078 29.4727 18.7207C30.4922 16.2657 29.9883 13.5703 28.1543 11.6895C27.2285 10.7403 26.1563 10.1426 24.8731 9.86722C24.375 9.7559 23.127 9.71488 22.6524 9.78519ZM24.8731 11.0743C26.707 11.5489 28.1543 12.9961 28.6582 14.8536C28.7637 15.2344 28.7871 15.4805 28.7871 16.1719C28.7871 17.1504 28.6816 17.6485 28.3125 18.4102C28.1074 18.8379 23.6192 25.9512 23.5547 25.9512C23.4902 25.9512 19.002 18.8379 18.7969 18.4102C18.4277 17.6485 18.3223 17.1504 18.3223 16.1719C18.3223 15.4805 18.3457 15.2344 18.4512 14.8536C18.9902 12.8555 20.5957 11.3672 22.6055 10.9864C23.2149 10.8692 24.2578 10.9102 24.8731 11.0743ZM23.8418 27.7383C24.1172 27.8848 24.2109 28.2246 24.0586 28.5293C23.8535 28.9161 23.2559 28.9161 23.0508 28.5293C22.7754 27.9961 23.3086 27.4629 23.8418 27.7383Z" fill="white"/>
<path d="M22.8691 13.3242C21.5859 13.6348 20.625 14.8535 20.625 16.1719C20.625 17.7539 21.9727 19.1016 23.5547 19.1016C25.1367 19.1016 26.4844 17.7539 26.4844 16.1719C26.4844 14.5664 25.1191 13.2246 23.5078 13.2481C23.3262 13.2481 23.0391 13.2832 22.8691 13.3242ZM24.3398 14.6133C24.9551 14.9121 25.2832 15.457 25.2832 16.1719C25.2832 16.6699 25.1602 17.0039 24.8496 17.3613C24.3691 17.9004 23.4609 18.0703 22.7812 17.7363C21.8438 17.2734 21.5215 16.1074 22.0898 15.2168C22.5586 14.4785 23.5312 14.2207 24.3398 14.6133Z" fill="white"/>
<path d="M13.834 27.7383C13.3242 28.0195 13.541 28.8281 14.1211 28.8281C14.4199 28.8281 14.707 28.541 14.707 28.2481C14.707 27.8086 14.2207 27.5215 13.834 27.7383Z" fill="white"/>
</svg>
