<svg width="41" height="26" viewBox="0 0 41 26" fill="none" xmlns="http://www.w3.org/2000/svg">
<path d="M34.964 23.8333H33.357V9.08206C31.3398 9.56266 29.4659 8.5939 28.4206 6.88408C27.5017 8.38054 25.9621 9.20825 24.4442 9.20825C22.8025 9.20825 21.3528 8.26692 20.5003 6.83875C19.6476 8.26692 18.1979 9.20825 16.5565 9.20825C15.0448 9.20825 13.503 8.38712 12.58 6.88408C11.5324 8.59643 9.65783 9.56239 7.64267 9.08206V23.8333H6.03561C5.7399 23.8333 5.5 24.0756 5.5 24.3748V25.4582C5.5 25.7572 5.7399 26 6.03561 26H34.9639C35.2596 26 35.4995 25.7575 35.4995 25.4585V24.3751C35.4995 24.0756 35.2596 23.8333 34.9639 23.8333H34.964ZM30.1425 20.0416C30.1425 20.3406 29.9026 20.5831 29.6069 20.5831H11.3928C11.0971 20.5831 10.8572 20.3406 10.8572 20.0416V11.375C10.8572 11.0758 11.0971 10.8335 11.3928 10.8335H29.6069C29.9026 10.8335 30.1425 11.0758 30.1425 11.375V20.0416Z" fill="#1D8AFF"/>
<path d="M19.6962 0.00012207V3.86912C19.6962 5.91724 18.2875 7.5835 16.5561 7.5835C14.8356 7.5835 13.2969 5.93691 13.4137 3.91678C13.4606 3.10796 13.6895 1.25155 13.8509 0.000186518L19.6962 0.00012207Z" fill="#1D8AFF"/>
<path d="M27.1498 6.4448e-05C27.3112 1.25117 27.5402 3.10784 27.587 3.91666C27.7038 5.93679 26.1645 7.58337 24.4441 7.58337C22.7122 7.58337 21.3037 5.91712 21.3037 3.869L21.304 0L27.1498 6.4448e-05Z" fill="#1D8AFF"/>
<path d="M32.3327 7.5835C30.8524 7.5835 29.3428 6.37592 29.1905 3.82154C29.1437 3.00466 28.9317 1.26258 28.7703 0.00012207H33.6914C34.4856 1.4412 35.4004 3.27491 35.4793 3.96205C35.7053 5.94265 34.0474 7.58343 32.3327 7.58343L32.3327 7.5835Z" fill="#1D8AFF"/>
<path d="M5.52106 3.96204C5.59953 3.27517 6.51429 1.44113 7.30899 0.00012207H12.2301C12.0684 1.26258 11.8564 3.00466 11.8098 3.82128C11.6571 6.37566 10.1475 7.58324 8.66721 7.58324C6.9525 7.58324 5.29461 5.94246 5.52107 3.96211L5.52106 3.96204Z" fill="#1D8AFF"/>
</svg>
