<svg width="21" height="21" viewBox="0 0 21 21" fill="none" xmlns="http://www.w3.org/2000/svg">
<path d="M17.3691 13.8156C17.4922 13.5541 17.6075 13.2847 17.6999 13.0079L19.8383 12.6924C20.2152 12.639 20.5 12.3159 20.5 11.931V9.06189C20.5 8.68503 20.2155 8.36188 19.8383 8.3005L17.6999 7.98502C17.6075 7.7082 17.4922 7.43876 17.3691 7.17732L18.6537 5.44648C18.8845 5.13867 18.8538 4.7081 18.5844 4.43865L16.5537 2.41565C16.2845 2.14651 15.8537 2.11581 15.5539 2.33863L13.8153 3.63091C13.5538 3.50017 13.2844 3.39246 13.0076 3.29241L12.6921 1.15397C12.6384 0.777109 12.3153 0.5 11.9307 0.5H9.06159C8.67706 0.5 8.3539 0.776821 8.2999 1.15397L7.98442 3.29241C7.7076 3.39245 7.43816 3.50017 7.17672 3.63091L5.44587 2.33863C5.13807 2.11552 4.7075 2.14621 4.43804 2.41565L2.40764 4.43895C2.1385 4.70809 2.10751 5.13896 2.33829 5.44648L3.62294 7.17732C3.49987 7.43879 3.39216 7.70823 3.29211 7.98502L1.15368 8.3005C0.776814 8.36189 0.5 8.68504 0.5 9.06189V11.931C0.5 12.3156 0.776822 12.6387 1.15397 12.6927L3.29241 13.0082C3.39245 13.285 3.50017 13.5545 3.62323 13.8159L2.33859 15.5545C2.1078 15.8623 2.1385 16.2852 2.40794 16.5543L4.43864 18.585C4.70778 18.8541 5.13865 18.8851 5.44647 18.6543L7.17731 17.3697C7.43878 17.4928 7.70822 17.6081 7.98501 17.7005L8.3005 19.839C8.35421 20.2158 8.67736 20.5006 9.06219 20.5006H11.9313C12.3159 20.5006 12.639 20.2161 12.6927 19.839L13.0082 17.7005C13.285 17.6081 13.5545 17.4928 13.8159 17.3697L15.5545 18.6543C15.8543 18.8851 16.2852 18.8544 16.5543 18.585L18.585 16.5543C18.8541 16.2851 18.8851 15.8619 18.6543 15.5545L17.3691 13.8156ZM10.5 14.6467C8.20748 14.6467 6.34624 12.785 6.34624 10.5006C6.34624 8.2084 8.20786 6.34685 10.5 6.34685C12.7844 6.34685 14.6461 8.20847 14.6461 10.5006C14.6461 12.785 12.7844 14.6467 10.5 14.6467Z" fill="#1D8AFF"/>
</svg>
