<svg width="51" height="51" viewBox="0 0 51 51" fill="none" xmlns="http://www.w3.org/2000/svg">
<g filter="url(#filter0_d_56_151)">
<rect x="13" y="13" width="33" height="33" rx="4" fill="#1D8AFF" stroke="white" stroke-width="2"/>
<path d="M40.9918 28.1658L39.7901 25.3246C39.5781 24.8305 39.2384 24.4116 38.811 24.1178C38.3837 23.824 37.8868 23.6674 37.379 23.6666H20.1395C19.528 23.6674 18.9419 23.9277 18.5094 24.3908C18.0771 24.8541 17.8341 25.4819 17.8334 26.1369V32.311C17.8334 32.6701 17.9665 33.0143 18.2035 33.2683C18.4407 33.5222 18.762 33.6648 19.0972 33.6648H20.9834C21.1033 34.2975 21.4903 34.835 22.0313 35.1197C22.5721 35.4045 23.2058 35.4045 23.7466 35.1197C24.2875 34.835 24.6745 34.2975 24.7945 33.6648H34.2056C34.3255 34.2975 34.7125 34.835 35.2535 35.1197C35.7943 35.4045 36.428 35.4045 36.9688 35.1197C37.5098 34.835 37.8967 34.2975 38.0167 33.6648H40.0856C40.3195 33.6647 40.5469 33.5836 40.7342 33.4333C40.9214 33.283 41.058 33.0721 41.124 32.8317C41.152 32.726 41.1664 32.6167 41.1667 32.5068V29.0283C41.1665 28.7307 41.1068 28.4367 40.9917 28.166L40.9918 28.1658ZM19.7781 28.6657C19.5633 28.6657 19.3892 28.4791 19.3892 28.2491V24.9164C19.3892 24.6864 19.5633 24.4998 19.7781 24.4998H22.5003C22.6034 24.4998 22.7024 24.5437 22.7753 24.6218C22.8482 24.6999 22.8892 24.8059 22.8892 24.9164V28.2491C22.8892 28.3595 22.8482 28.4656 22.7753 28.5437C22.7024 28.6218 22.6034 28.6657 22.5003 28.6657H19.7781ZM22.8892 34.4978C22.5798 34.4978 22.2829 34.3662 22.0642 34.1318C21.8455 33.8975 21.7225 33.5795 21.7225 33.2481C21.7225 32.9168 21.8455 32.5987 22.0642 32.3644C22.283 32.1301 22.5799 31.9984 22.8892 31.9984C23.1985 31.9984 23.4955 32.1301 23.7142 32.3644C23.9329 32.5987 24.0558 32.9168 24.0558 33.2481C24.055 33.5793 23.9317 33.8966 23.7131 34.1307C23.4946 34.3649 23.1984 34.4969 22.8892 34.4979L22.8892 34.4978ZM27.167 28.2491C27.167 28.3595 27.126 28.4656 27.0531 28.5437C26.9802 28.6218 26.8812 28.6657 26.7781 28.6657H24.0559C23.8411 28.6657 23.667 28.4791 23.667 28.2491V24.9164C23.667 24.6864 23.8411 24.4998 24.0559 24.4998H26.7781C26.8812 24.4998 26.9802 24.5437 27.0531 24.6218C27.126 24.6999 27.167 24.8059 27.167 24.9164V28.2491ZM31.4447 28.2491C31.4447 28.3595 31.4038 28.4656 31.3308 28.5437C31.2579 28.6218 31.159 28.6657 31.0558 28.6657H28.3336C28.1189 28.6657 27.9447 28.4791 27.9447 28.2491V24.9164C27.9447 24.6864 28.1189 24.4998 28.3336 24.4998H31.0558C31.159 24.4998 31.2579 24.5437 31.3308 24.6218C31.4038 24.6999 31.4447 24.8059 31.4447 24.9164V28.2491ZM32.6114 28.6657C32.3966 28.6657 32.2225 28.4791 32.2225 28.2491V24.9164C32.2225 24.6864 32.3966 24.4998 32.6114 24.4998H35.3336C35.4367 24.4998 35.5357 24.5437 35.6086 24.6218C35.6815 24.6999 35.7225 24.8059 35.7225 24.9164V28.2491C35.7225 28.3595 35.6815 28.4656 35.6086 28.5437C35.5357 28.6218 35.4367 28.6657 35.3336 28.6657H32.6114ZM36.1114 34.4978C35.802 34.4978 35.5051 34.3662 35.2864 34.1318C35.0677 33.8975 34.9448 33.5795 34.9448 33.2481C34.9448 32.9168 35.0677 32.5987 35.2864 32.3644C35.5052 32.1301 35.8021 31.9984 36.1114 31.9984C36.4207 31.9984 36.7177 32.1301 36.9364 32.3644C37.1551 32.5987 37.278 32.9168 37.278 33.2481C37.2772 33.5793 37.1539 33.8966 36.9353 34.1307C36.7168 34.3649 36.4206 34.4969 36.1114 34.4979L36.1114 34.4978ZM36.8581 28.6657C36.6564 28.6463 36.5015 28.4659 36.5003 28.2491V24.9127C36.5003 24.6847 36.6729 24.4998 36.8857 24.4998H37.3791C37.7378 24.5008 38.0885 24.6116 38.3902 24.819C38.6922 25.0263 38.9322 25.3217 39.0826 25.6704L40.2843 28.5115H40.2842C40.347 28.6596 40.3814 28.8197 40.3854 28.9822L36.8581 28.6657Z" fill="white"/>
<circle cx="14" cy="14" r="7" transform="rotate(-45 14 14)" fill="white"/>
<circle cx="14" cy="14" r="6.5" transform="rotate(-45 14 14)" stroke="black" stroke-opacity="0.6"/>
<path d="M16.1212 16.5213C16.3421 16.5213 16.5212 16.3423 16.5212 16.1213L16.5212 12.5213C16.5212 12.3004 16.3421 12.1213 16.1212 12.1213C15.9003 12.1213 15.7212 12.3004 15.7212 12.5213V15.7213H12.5212C12.3003 15.7213 12.1212 15.9004 12.1212 16.1213C12.1212 16.3423 12.3003 16.5213 12.5212 16.5213L16.1212 16.5213ZM12.3029 12.8687L15.8384 16.4042L16.4041 15.8385L12.8685 12.303L12.3029 12.8687Z" fill="black" fill-opacity="0.6"/>
</g>
<defs>
<filter id="filter0_d_56_151" x="0.100464" y="0.100464" width="50.8995" height="50.8995" filterUnits="userSpaceOnUse" color-interpolation-filters="sRGB">
<feFlood flood-opacity="0" result="BackgroundImageFix"/>
<feColorMatrix in="SourceAlpha" type="matrix" values="0 0 0 0 0 0 0 0 0 0 0 0 0 0 0 0 0 0 127 0" result="hardAlpha"/>
<feOffset/>
<feGaussianBlur stdDeviation="2"/>
<feComposite in2="hardAlpha" operator="out"/>
<feColorMatrix type="matrix" values="0 0 0 0 0 0 0 0 0 0 0 0 0 0 0 0 0 0 0.15 0"/>
<feBlend mode="normal" in2="BackgroundImageFix" result="effect1_dropShadow_56_151"/>
<feBlend mode="normal" in="SourceGraphic" in2="effect1_dropShadow_56_151" result="shape"/>
</filter>
</defs>
</svg>
