<svg width="30" height="30" viewBox="0 0 30 30" fill="none" xmlns="http://www.w3.org/2000/svg">
<rect x="1" y="1" width="28" height="28" rx="4" fill="#1D8AFF" stroke="white" stroke-width="2"/>
<path d="M24.8501 13.8564L23.8201 11.4211C23.6384 10.9976 23.3471 10.6386 22.9808 10.3867C22.6146 10.1349 22.1887 10.0006 21.7534 10H6.97665C6.45253 10.0006 5.95017 10.2238 5.57947 10.6207C5.20893 11.0178 5.00061 11.556 5 12.1174V17.4094C5 17.7172 5.11414 18.0123 5.31726 18.23C5.52053 18.4476 5.79596 18.5699 6.08332 18.5699H7.7C7.80283 19.1122 8.13451 19.5729 8.59821 19.817C9.06175 20.061 9.60491 20.061 10.0685 19.817C10.5322 19.5729 10.8638 19.1122 10.9667 18.5699H19.0333C19.1362 19.1122 19.4678 19.5729 19.9315 19.817C20.3951 20.061 20.9382 20.061 21.4018 19.817C21.8655 19.5729 22.1972 19.1122 22.3 18.5699H24.0734C24.2738 18.5697 24.4687 18.5002 24.6293 18.3714C24.7897 18.2426 24.9068 18.0619 24.9634 17.8557C24.9874 17.7652 24.9997 17.6715 25 17.5773V14.5957C24.9999 14.3407 24.9487 14.0886 24.85 13.8566L24.8501 13.8564ZM6.66689 14.2849C6.48282 14.2849 6.33356 14.125 6.33356 13.9278V11.0712C6.33356 10.8741 6.48282 10.7142 6.66689 10.7142H9.00022C9.08862 10.7142 9.17344 10.7518 9.23594 10.8187C9.29844 10.8857 9.33356 10.9766 9.33356 11.0712V13.9278C9.33356 14.0225 9.29844 14.1134 9.23594 14.1803C9.17344 14.2473 9.08862 14.2849 9.00022 14.2849H6.66689ZM9.33356 19.2839C9.06838 19.2839 8.8139 19.171 8.62643 18.9702C8.43897 18.7693 8.33358 18.4967 8.33358 18.2127C8.33358 17.9287 8.43893 17.656 8.62643 17.4552C8.81394 17.2544 9.06841 17.1415 9.33356 17.1415C9.5987 17.1415 9.85321 17.2544 10.0407 17.4552C10.2281 17.6561 10.3335 17.9287 10.3335 18.2127C10.3328 18.4966 10.2271 18.7686 10.0398 18.9692C9.85244 19.1699 9.59857 19.2831 9.33354 19.2839L9.33356 19.2839ZM13.0002 13.9278C13.0002 14.0225 12.9651 14.1134 12.9026 14.1803C12.8401 14.2473 12.7553 14.2849 12.6669 14.2849H10.3336C10.1495 14.2849 10.0002 14.125 10.0002 13.9278V11.0712C10.0002 10.8741 10.1495 10.7142 10.3336 10.7142H12.6669C12.7553 10.7142 12.8401 10.7518 12.9026 10.8187C12.9651 10.8857 13.0002 10.9766 13.0002 11.0712V13.9278ZM16.6669 13.9278C16.6669 14.0225 16.6318 14.1134 16.5693 14.1803C16.5068 14.2473 16.4219 14.2849 16.3335 14.2849H14.0002C13.8161 14.2849 13.6669 14.125 13.6669 13.9278V11.0712C13.6669 10.8741 13.8161 10.7142 14.0002 10.7142H16.3335C16.4219 10.7142 16.5068 10.7518 16.5693 10.8187C16.6318 10.8857 16.6669 10.9766 16.6669 11.0712V13.9278ZM17.6669 14.2849C17.4828 14.2849 17.3335 14.125 17.3335 13.9278V11.0712C17.3335 10.8741 17.4828 10.7142 17.6669 10.7142H20.0002C20.0886 10.7142 20.1734 10.7518 20.2359 10.8187C20.2984 10.8857 20.3335 10.9766 20.3335 11.0712V13.9278C20.3335 14.0225 20.2984 14.1134 20.2359 14.1803C20.1734 14.2473 20.0886 14.2849 20.0002 14.2849H17.6669ZM20.6669 19.2839C20.4017 19.2839 20.1472 19.171 19.9598 18.9702C19.7723 18.7693 19.6669 18.4967 19.6669 18.2127C19.6669 17.9287 19.7723 17.656 19.9598 17.4552C20.1473 17.2544 20.4017 17.1415 20.6669 17.1415C20.932 17.1415 21.1865 17.2544 21.374 17.4552C21.5615 17.6561 21.6669 17.9287 21.6669 18.2127C21.6661 18.4966 21.5605 18.7686 21.3731 18.9692C21.1858 19.1699 20.9319 19.2831 20.6669 19.2839L20.6669 19.2839ZM21.3069 14.2849C21.134 14.2683 21.0013 14.1137 21.0002 13.9278V11.0681C21.0002 10.8726 21.1481 10.7142 21.3306 10.7142H21.7535C22.0609 10.715 22.3615 10.81 22.6202 10.9877C22.879 11.1655 23.0847 11.4186 23.2136 11.7175L24.2437 14.1528H24.2435C24.2974 14.2797 24.3269 14.4169 24.3303 14.5562L21.3069 14.2849Z" fill="white"/>
</svg>
